<?xml version="1.0" encoding="UTF-8" standalone="no"?>
<!-- Created with Inkscape (http://www.inkscape.org/) -->

<svg
   xmlns:dc="http://purl.org/dc/elements/1.1/"
   xmlns:cc="http://creativecommons.org/ns#"
   xmlns:rdf="http://www.w3.org/1999/02/22-rdf-syntax-ns#"
   xmlns:svg="http://www.w3.org/2000/svg"
   xmlns="http://www.w3.org/2000/svg"
   xmlns:sodipodi="http://sodipodi.sourceforge.net/DTD/sodipodi-0.dtd"
   xmlns:inkscape="http://www.inkscape.org/namespaces/inkscape"
   version="1.1"
   id="svg815"
   width="840"
   height="719"
   viewBox="0 0 840 719"
   sodipodi:docname="gem.svg"
   inkscape:version="0.92.4 (5da689c313, 2019-01-14)">
  <metadata
     id="metadata821">
    <rdf:RDF>
      <cc:Work
         rdf:about="">
        <dc:format>image/svg+xml</dc:format>
        <dc:type
           rdf:resource="http://purl.org/dc/dcmitype/StillImage" />
        <dc:title />
      </cc:Work>
    </rdf:RDF>
  </metadata>
  <defs
     id="defs819" />
  <sodipodi:namedview
     pagecolor="#ffffff"
     bordercolor="#666666"
     borderopacity="1"
     objecttolerance="10"
     gridtolerance="10"
     guidetolerance="10"
     inkscape:pageopacity="0"
     inkscape:pageshadow="2"
     inkscape:window-width="1920"
     inkscape:window-height="1017"
     id="namedview817"
     showgrid="false"
     inkscape:zoom="1.2030598"
     inkscape:cx="366.26475"
     inkscape:cy="86.48746"
     inkscape:window-x="-8"
     inkscape:window-y="-8"
     inkscape:window-maximized="1"
     inkscape:current-layer="svg815" />
  <path
     style="fill:none;stroke:#000000;stroke-width:1px;stroke-linecap:butt;stroke-linejoin:miter;stroke-opacity:1"
     d="M 143.8,520.33988 V 197.8289 L 419.76301,39.898266 694.06358,196.99769 697.38844,519.50867 422.25665,680.76416 Z"
     id="path4529"
     inkscape:connector-curvature="0"
     inkscape:export-xdpi="242.93201"
     inkscape:export-ydpi="242.93201"
     inkscape:export-filename="C:\Users\josullivan\Desktop\Angular\Paper Engine\paper\gem2.png" />
  <path
     style="fill:none;stroke:#000000;stroke-width:1px;stroke-linecap:butt;stroke-linejoin:miter;stroke-opacity:1"
     d="M 143.8,197.8289 289.26243,287.6 420.59422,207.80347 419.76301,39.898266"
     id="path4531"
     inkscape:connector-curvature="0"
     inkscape:export-xdpi="242.93201"
     inkscape:export-ydpi="242.93201"
     inkscape:export-filename="C:\Users\josullivan\Desktop\Angular\Paper Engine\paper\gem2.png" />
  <path
     style="fill:none;stroke:#000000;stroke-width:1px;stroke-linecap:butt;stroke-linejoin:miter;stroke-opacity:1"
     d="M 420.59422,207.80347 551.0948,285.10636 694.06358,196.99769"
     id="path4533"
     inkscape:connector-curvature="0"
     inkscape:export-xdpi="242.93201"
     inkscape:export-ydpi="242.93201"
     inkscape:export-filename="C:\Users\josullivan\Desktop\Angular\Paper Engine\paper\gem2.png" />
  <path
     style="fill:none;stroke:#000000;stroke-width:1px;stroke-linecap:butt;stroke-linejoin:miter;stroke-opacity:1"
     d="m 551.0948,285.10636 -3.32486,155.43699 149.6185,78.96532"
     id="path4535"
     inkscape:connector-curvature="0"
     inkscape:export-xdpi="242.93201"
     inkscape:export-ydpi="242.93201"
     inkscape:export-filename="C:\Users\josullivan\Desktop\Angular\Paper Engine\paper\gem2.png" />
  <path
     style="fill:none;stroke:#000000;stroke-width:1px;stroke-linecap:butt;stroke-linejoin:miter;stroke-opacity:1"
     d="m 547.76994,440.54335 -129.66936,71.4844 4.15607,168.73641"
     id="path4537"
     inkscape:connector-curvature="0"
     inkscape:export-xdpi="242.93201"
     inkscape:export-ydpi="242.93201"
     inkscape:export-filename="C:\Users\josullivan\Desktop\Angular\Paper Engine\paper\gem2.png" />
  <path
     style="fill:none;stroke:#000000;stroke-width:1px;stroke-linecap:butt;stroke-linejoin:miter;stroke-opacity:1"
     d="M 418.10058,512.02775 287.6,437.2185 143.8,520.33988"
     id="path4539"
     inkscape:connector-curvature="0"
     inkscape:export-xdpi="242.93201"
     inkscape:export-ydpi="242.93201"
     inkscape:export-filename="C:\Users\josullivan\Desktop\Angular\Paper Engine\paper\gem2.png" />
  <path
     style="fill:none;stroke:#000000;stroke-width:1px;stroke-linecap:butt;stroke-linejoin:miter;stroke-opacity:1"
     d="M 287.6,437.2185 289.26243,287.6"
     id="path4541"
     inkscape:connector-curvature="0"
     inkscape:export-xdpi="242.93201"
     inkscape:export-ydpi="242.93201"
     inkscape:export-filename="C:\Users\josullivan\Desktop\Angular\Paper Engine\paper\gem2.png" />
  <path
     style="opacity:0.25600011;fill:#ff9955;fill-opacity:1;fill-rule:nonzero;stroke:none;stroke-width:1.73101938;stroke-linecap:round;stroke-linejoin:round;stroke-miterlimit:4;stroke-dasharray:none;stroke-opacity:1"
     d="m 219.11979,243.28372 c -38.20592,-23.62865 -70.3338,-43.54125 -71.39529,-44.25021 -1.87288,-1.25091 2.09789,-3.59406 134.20776,-79.19609 74.87575,-42.848871 136.316,-77.728777 136.53388,-77.5109 0.21787,0.217877 0.4464,37.506832 0.50783,82.86435 l 0.11169,82.4682 -64.77697,39.34705 c -35.62734,21.64088 -64.98997,39.3227 -65.25029,39.29292 -0.26032,-0.0298 -31.7327,-19.38666 -69.93861,-43.01532 z"
     id="path4543"
     inkscape:connector-curvature="0"
     inkscape:export-xdpi="242.93201"
     inkscape:export-ydpi="242.93201"
     inkscape:export-filename="C:\Users\josullivan\Desktop\Angular\Paper Engine\paper\gem2.png" />
  <path
     style="opacity:0.25600011;fill:#ff6600;fill-opacity:1;fill-rule:nonzero;stroke:none;stroke-width:1.73101938;stroke-linecap:round;stroke-linejoin:round;stroke-miterlimit:4;stroke-dasharray:none;stroke-opacity:1"
     d="m 485.99838,245.53766 -64.41907,-38.23243 -0.44029,-82.87226 c -0.24216,-45.579755 -0.42918,-82.904069 -0.41561,-82.942927 0.0267,-0.07641 266.43719,152.568227 269.57238,154.456297 1.79898,1.08337 -1.69628,3.35643 -67.75488,44.06268 -38.30843,23.60622 -70.20785,43.10955 -70.88758,43.34073 -0.6945,0.23621 -29.45466,-16.32739 -65.65495,-37.81209 z"
     id="path4545"
     inkscape:connector-curvature="0"
     inkscape:export-xdpi="242.93201"
     inkscape:export-ydpi="242.93201"
     inkscape:export-filename="C:\Users\josullivan\Desktop\Angular\Paper Engine\paper\gem2.png" />
  <path
     style="opacity:0.25600011;fill:#d45500;fill-opacity:1;fill-rule:nonzero;stroke:none;stroke-width:1.73101938;stroke-linecap:round;stroke-linejoin:round;stroke-miterlimit:4;stroke-dasharray:none;stroke-opacity:1"
     d="m 621.93475,478.70114 c -40.21266,-21.25537 -73.15803,-38.72328 -73.21193,-38.81756 -0.0539,-0.0943 0.56103,-29.34705 1.36651,-65.00612 0.80548,-35.65908 1.48936,-70.2789 1.51973,-76.93295 l 0.0552,-12.09825 70.38678,-43.3746 c 38.71273,-23.85602 70.55526,-43.20611 70.76119,-43.00018 0.35085,0.35084 3.37626,264.44976 3.44959,301.12707 0.0185,9.25765 -0.24688,16.81333 -0.58976,16.7904 -0.34287,-0.0229 -33.52467,-17.43244 -73.73733,-38.68781 z"
     id="path4547"
     inkscape:connector-curvature="0"
     inkscape:export-xdpi="242.93201"
     inkscape:export-ydpi="242.93201"
     inkscape:export-filename="C:\Users\josullivan\Desktop\Angular\Paper Engine\paper\gem2.png" />
  <path
     style="opacity:0.25600011;fill:#d45500;fill-opacity:1;fill-rule:nonzero;stroke:none;stroke-width:1.73101938;stroke-linecap:round;stroke-linejoin:round;stroke-miterlimit:4;stroke-dasharray:none;stroke-opacity:1"
     d="m 531.29954,271.88076 c -10.51486,-6.07455 -39.31642,-23.01723 -64.00347,-37.6504 l -44.88555,-26.60575 -0.61087,-23.60017 c -0.33598,-12.98009 -0.523,-50.21389 -0.41561,-82.74177 l 0.19527,-59.141608 44.48091,25.477446 c 24.4645,14.012595 84.96407,48.668312 134.44348,77.012702 49.47941,28.3444 89.96498,51.74534 89.96793,52.00212 0.0126,1.09908 -17.26218,12.01369 -81.4536,51.46419 -51.64212,31.738 -56.96513,34.94547 -57.8848,34.87934 -0.39367,-0.0283 -9.31884,-5.02154 -19.83369,-11.0961 z"
     id="path4549"
     inkscape:connector-curvature="0"
     inkscape:export-xdpi="242.93201"
     inkscape:export-ydpi="242.93201"
     inkscape:export-filename="C:\Users\josullivan\Desktop\Angular\Paper Engine\paper\gem2.png" />
  <path
     style="opacity:0.25600011;fill:#aa4400;fill-opacity:1;fill-rule:nonzero;stroke:none;stroke-width:1.73101938;stroke-linecap:round;stroke-linejoin:round;stroke-miterlimit:4;stroke-dasharray:none;stroke-opacity:1"
     d="m 661.80012,499.49606 c -17.82954,-9.39072 -50.46508,-26.64282 -72.52341,-38.33799 l -40.10607,-21.26395 0.0207,-8.81873 c 0.0114,-4.85031 0.56387,-32.7577 1.22775,-62.01643 0.66388,-29.25873 1.22315,-59.93052 1.24284,-68.15954 l 0.0358,-14.96185 52.06636,-32.00173 c 28.6365,-17.60096 60.3294,-36.99647 70.42866,-43.10113 l 18.3623,-11.0994 0.1737,2.78726 c 0.17951,2.88042 1.59295,121.34529 2.32916,195.21327 0.2301,23.08696 0.62225,57.61509 0.87146,76.72918 0.42098,32.28945 0.14388,42.15651 -1.18286,42.11974 -0.29097,-0.008 -15.11684,-7.69798 -32.94637,-17.0887 z"
     id="path4551"
     inkscape:connector-curvature="0"
     inkscape:export-xdpi="242.93201"
     inkscape:export-ydpi="242.93201"
     inkscape:export-filename="C:\Users\josullivan\Desktop\Angular\Paper Engine\paper\gem2.png" />
  <path
     style="opacity:0.25600011;fill:#aa4400;fill-opacity:1;fill-rule:nonzero;stroke:none;stroke-width:1.73101938;stroke-linecap:round;stroke-linejoin:round;stroke-miterlimit:4;stroke-dasharray:none;stroke-opacity:1"
     d=""
     id="path4553"
     inkscape:connector-curvature="0" />
  <path
     style="opacity:0.25600011;fill:#aa4400;fill-opacity:1;fill-rule:nonzero;stroke:none;stroke-width:1.73101938;stroke-linecap:round;stroke-linejoin:round;stroke-miterlimit:4;stroke-dasharray:none;stroke-opacity:1"
     d="m 533.70177,272.96176 c -9.55025,-5.49389 -38.37652,-22.40201 -64.05839,-37.57359 l -46.6943,-27.5847 -0.4727,-6.64971 c -0.69461,-9.77173 -1.10122,-112.041466 -0.54443,-136.936973 l 0.47857,-21.398243 61.09422,34.994552 c 82.20373,47.086004 195.4647,112.084134 201.34517,115.547834 2.6197,1.54305 4.77047,3.07468 4.77948,3.40363 0.0357,1.30567 -18.69699,13.13948 -91.83453,58.01346 -22.85936,14.02549 -42.72494,26.10203 -44.14574,26.83676 l -2.58327,1.33586 z"
     id="path4555"
     inkscape:connector-curvature="0"
     inkscape:export-xdpi="242.93201"
     inkscape:export-ydpi="242.93201"
     inkscape:export-filename="C:\Users\josullivan\Desktop\Angular\Paper Engine\paper\gem2.png" />
  <path
     style="opacity:0.25600011;fill:#803300;fill-opacity:1;fill-rule:nonzero;stroke:none;stroke-width:1.73101938;stroke-linecap:round;stroke-linejoin:round;stroke-miterlimit:4;stroke-dasharray:none;stroke-opacity:1"
     d="M 671.77468,504.45487 C 648.075,492.0545 549.7369,440.04962 549.33683,439.70514 c -0.13718,-0.11812 0.34153,-28.40535 1.06379,-62.86052 0.72227,-34.45518 1.39557,-68.99836 1.49624,-76.76264 l 0.18302,-14.11686 20.78035,-12.77649 c 100.66046,-61.88957 118.50429,-72.67123 119.17017,-72.00536 0.28264,0.28263 0.7628,20.21607 1.06703,44.29652 0.30423,24.08045 0.77468,60.4277 1.04543,80.77166 0.27075,20.34395 0.74048,71.30776 1.04385,113.25289 0.47341,65.45602 0.38492,76.26348 -0.62444,76.26111 -0.64682,-0.002 -10.90123,-5.09128 -22.78759,-11.31058 z"
     id="path4557"
     inkscape:connector-curvature="0"
     inkscape:export-xdpi="242.93201"
     inkscape:export-ydpi="242.93201"
     inkscape:export-filename="C:\Users\josullivan\Desktop\Angular\Paper Engine\paper\gem2.png" />
  <path
     style="opacity:0.25600011;fill:#e580ff;fill-opacity:1;fill-rule:nonzero;stroke:none;stroke-width:1.73101938;stroke-linecap:round;stroke-linejoin:round;stroke-miterlimit:4;stroke-dasharray:none;stroke-opacity:1"
     d="m 422.82613,672.7219 c 0,-6.14752 -2.91767,-129.81459 -3.55919,-150.85835 l -0.28297,-9.28212 64.21772,-35.39563 c 35.31975,-19.46759 64.39083,-35.39563 64.6024,-35.39563 0.28401,0 140.34575,73.75822 146.61751,77.21057 0.93178,0.5129 -28.569,17.95823 -227.33333,134.43392 l -44.26214,25.93756 z"
     id="path4561"
     inkscape:connector-curvature="0"
     inkscape:export-xdpi="242.93201"
     inkscape:export-ydpi="242.93201"
     inkscape:export-filename="C:\Users\josullivan\Desktop\Angular\Paper Engine\paper\gem2.png" />
  <path
     style="opacity:0.25600011;fill:#d42aff;fill-opacity:1;fill-rule:nonzero;stroke:none;stroke-width:1.73101938;stroke-linecap:round;stroke-linejoin:round;stroke-miterlimit:4;stroke-dasharray:none;stroke-opacity:1"
     d="M 283.39973,599.79645 C 208.31529,556.48702 146.6774,520.84684 146.42664,520.59608 c -0.38019,-0.38019 140.17631,-82.13076 141.21018,-82.13076 0.55477,0 128.05616,73.20417 128.85567,73.98172 0.40243,0.39137 1.60318,35.05642 2.66835,77.03343 2.19317,86.43071 2.23654,89.23288 1.37945,89.13303 -0.34288,-0.0399 -62.05613,-35.50762 -137.14056,-78.81705 z"
     id="path4563"
     inkscape:connector-curvature="0"
     inkscape:export-xdpi="242.93201"
     inkscape:export-ydpi="242.93201"
     inkscape:export-filename="C:\Users\josullivan\Desktop\Angular\Paper Engine\paper\gem2.png" />
  <path
     style="opacity:0.25600011;fill:#aa00d4;fill-opacity:1;fill-rule:nonzero;stroke:none;stroke-width:1.73101938;stroke-linecap:round;stroke-linejoin:round;stroke-miterlimit:4;stroke-dasharray:none;stroke-opacity:1"
     d="m 144.36948,359.45994 c 0,-87.75415 0.28053,-159.54313 0.62341,-159.53105 0.34288,0.0121 32.60436,19.77529 71.6922,43.91826 l 71.06878,43.89631 -0.31918,63.10053 c -0.17556,34.70528 -0.5496,68.29463 -0.83122,74.64299 l -0.51202,11.54247 -60.26301,34.83763 c -33.14465,19.1607 -65.0321,37.60699 -70.86098,40.99175 l -10.59798,6.15411 z"
     id="path4565"
     inkscape:connector-curvature="0"
     inkscape:export-xdpi="242.93201"
     inkscape:export-ydpi="242.93201"
     inkscape:export-filename="C:\Users\josullivan\Desktop\Angular\Paper Engine\paper\gem2.png" />
  <path
     style="opacity:0.25600011;fill:#aa00d4;fill-opacity:1;fill-rule:nonzero;stroke:none;stroke-width:1.73101938;stroke-linecap:round;stroke-linejoin:round;stroke-miterlimit:4;stroke-dasharray:none;stroke-opacity:1"
     d="m 283.5978,283.06788 c -2.743,-1.73046 -21.25829,-13.16249 -41.14508,-25.40452 -56.18492,-34.58665 -94.75854,-58.72962 -94.75677,-59.30763 0.003,-0.93466 11.29528,-7.75166 48.75377,-29.43166 20.18653,-11.68344 38.32778,-22.16541 40.31387,-23.29327 1.9861,-1.12786 18.01187,-10.27675 35.61283,-20.33086 93.01599,-53.133101 144.88893,-82.492426 145.75011,-82.492426 0.29893,0 0.54353,37.169487 0.54353,82.598866 v 82.59885 l -44.26214,26.82783 c -24.34418,14.7553 -45.94535,27.86499 -48.0026,29.13265 -7.28277,4.48758 -37.47484,22.38645 -37.64625,22.31796 -0.0957,-0.0382 -2.41826,-1.48533 -5.16127,-3.21579 z"
     id="path4567"
     inkscape:connector-curvature="0"
     inkscape:export-xdpi="242.93201"
     inkscape:export-ydpi="242.93201"
     inkscape:export-filename="C:\Users\josullivan\Desktop\Angular\Paper Engine\paper\gem2.png" />
  <path
     style="opacity:0.25600011;fill:#aa00d4;fill-opacity:1;fill-rule:nonzero;stroke:none;stroke-width:1.73101938;stroke-linecap:round;stroke-linejoin:round;stroke-miterlimit:4;stroke-dasharray:none;stroke-opacity:1"
     d="m 144.50338,360.40815 c 0.15494,-87.28529 0.54881,-158.96757 0.87528,-159.29396 0.54359,-0.54347 19.99972,10.99975 49.95258,29.63661 1.91551,1.19185 10.4026,6.39601 18.86021,11.56482 8.4576,5.1688 17.24768,10.59085 19.53352,12.049 2.28584,1.45816 8.64463,5.38774 14.13064,8.73241 5.48601,3.34467 11.84479,7.27585 14.13063,8.73595 2.28584,1.4601 8.98358,5.60275 14.88388,9.20588 l 10.72779,6.55116 -0.56801,72.3206 c -0.3124,39.77633 -0.77515,73.45327 -1.02832,74.83766 -0.46272,2.53026 -0.80698,2.81087 -9.42543,7.68257 -2.03324,1.14931 -5.58668,3.21079 -7.89653,4.58108 -2.30985,1.37027 -5.32187,3.14014 -6.69338,3.93303 -3.353,1.93845 -18.30031,10.51788 -22.44277,12.88166 -1.82867,1.04348 -6.69127,3.86123 -10.80578,6.26165 -4.11451,2.40043 -9.7252,5.66416 -12.46821,7.25274 -2.74301,1.58858 -6.10942,3.54828 -7.48093,4.35489 -1.3715,0.80661 -6.2341,3.61917 -10.80578,6.25013 -13.80575,7.94509 -22.5363,12.9986 -38.51754,22.29519 l -15.24356,8.86746 z"
     id="path4569"
     inkscape:connector-curvature="0"
     inkscape:export-xdpi="242.93201"
     inkscape:export-ydpi="242.93201"
     inkscape:export-filename="C:\Users\josullivan\Desktop\Angular\Paper Engine\paper\gem2.png" />
  <path
     style="opacity:0.25600011;fill:#aa00d4;fill-opacity:1;fill-rule:nonzero;stroke:none;stroke-width:1.73101938;stroke-linecap:round;stroke-linejoin:round;stroke-miterlimit:4;stroke-dasharray:none;stroke-opacity:1"
     d="m 238.29665,254.88813 c -67.56174,-41.76445 -89.22326,-55.4157 -89.56651,-56.44547 -0.16039,-0.48117 3.00087,-2.9098 7.02502,-5.39695 C 177.00994,179.90904 411.3197,45.897799 416.2569,44.054205 c 1.13291,-0.423033 1.40684,0.624694 1.87023,7.153067 0.29862,4.206783 0.54235,41.161883 0.54166,82.122438 l -0.002,74.47376 -21.81809,13.2397 c -63.58321,38.58393 -106.95637,64.4754 -107.96282,64.4483 -0.62279,-0.0168 -23.38809,-13.78827 -50.58956,-30.60334 z"
     id="path4571"
     inkscape:connector-curvature="0"
     inkscape:export-xdpi="242.93201"
     inkscape:export-ydpi="242.93201"
     inkscape:export-filename="C:\Users\josullivan\Desktop\Angular\Paper Engine\paper\gem2.png" />
  <path
     style="opacity:0.25600011;fill:#aa00d4;fill-opacity:1;fill-rule:nonzero;stroke:none;stroke-width:1.73101938;stroke-linecap:round;stroke-linejoin:round;stroke-miterlimit:4;stroke-dasharray:none;stroke-opacity:1"
     d="M 283.5978,282.44196 C 234.52191,252.57209 153.81629,202.3742 150.90781,199.91045 l -1.96665,-1.66594 2.03314,-1.71978 c 3.71994,-3.1466 48.33772,-29.02491 157.14431,-91.14372 104.43885,-59.625222 108.35048,-61.78015 109.27919,-60.202153 0.49999,0.84954 0.91167,31.967293 1.0848,81.996863 l 0.27902,80.62775 -18.54029,11.14197 c -10.19715,6.12808 -34.43725,20.74149 -53.86688,32.47422 -34.03987,20.55525 -56.93763,34.12659 -57.50032,34.08005 -0.14797,-0.0122 -2.51332,-1.38823 -5.25633,-3.05775 z"
     id="path4573"
     inkscape:connector-curvature="0"
     inkscape:export-xdpi="242.93201"
     inkscape:export-ydpi="242.93201"
     inkscape:export-filename="C:\Users\josullivan\Desktop\Angular\Paper Engine\paper\gem2.png" />
  <path
     style="opacity:0.25600011;fill:#aa00d4;fill-opacity:1;fill-rule:nonzero;stroke:none;stroke-width:1.73101938;stroke-linecap:round;stroke-linejoin:round;stroke-miterlimit:4;stroke-dasharray:none;stroke-opacity:1"
     d="M 532.5416,272.04856 C 516.75246,262.9058 460.93933,230.08899 431.55387,212.67018 l -8.31214,-4.92719 -0.63078,-10.35993 c -0.7338,-12.05202 -0.44895,-152.526929 0.31084,-153.286197 0.49676,-0.496423 35.54545,19.44356 187.34307,106.583647 81.80204,46.95883 79.84313,45.79892 78.85302,46.69018 -1.55793,1.40241 -13.94427,9.41484 -28.98019,18.7466 -40.23376,24.9703 -89.3946,55.11043 -108.47818,66.50713 -0.2312,0.13807 -8.83426,-4.62106 -19.11791,-10.57586 z"
     id="path4575"
     inkscape:connector-curvature="0"
     inkscape:export-xdpi="242.93201"
     inkscape:export-ydpi="242.93201"
     inkscape:export-filename="C:\Users\josullivan\Desktop\Angular\Paper Engine\paper\gem2.png" />
  <path
     style="opacity:0.25600011;fill:#aa00d4;fill-opacity:1;fill-rule:nonzero;stroke:none;stroke-width:1.73101938;stroke-linecap:round;stroke-linejoin:round;stroke-miterlimit:4;stroke-dasharray:none;stroke-opacity:1"
     d="m 673.43711,504.99508 c -11.42919,-5.89342 -43.97121,-23.0028 -72.31561,-38.02084 l -51.53526,-27.30553 0.19965,-10.36846 c 0.10981,-5.70266 0.59011,-35.8036 1.06734,-66.891 0.47723,-31.0874 1.07567,-61.03587 1.32986,-66.55216 l 0.46218,-10.02962 30.88783,-19.00572 c 41.96497,-25.82165 97.15052,-59.42563 103.03347,-62.73988 2.64951,-1.49265 4.99414,-2.53708 5.21027,-2.32095 1.23604,1.23604 4.31421,305.70906 3.14276,310.86132 l -0.70214,3.08814 z"
     id="path4577"
     inkscape:connector-curvature="0"
     inkscape:export-xdpi="242.93201"
     inkscape:export-ydpi="242.93201"
     inkscape:export-filename="C:\Users\josullivan\Desktop\Angular\Paper Engine\paper\gem2.png" />
  <path
     style="opacity:0.25600011;fill:#660080;fill-opacity:1;fill-rule:nonzero;stroke:none;stroke-width:1.73101938;stroke-linecap:round;stroke-linejoin:round;stroke-miterlimit:4;stroke-dasharray:none;stroke-opacity:1"
     d="m 352.71951,473.53983 -64.70372,-37.15255 0.47829,-8.72774 c 0.26306,-4.80026 0.71654,-38.14041 1.00775,-74.08921 l 0.52946,-65.36147 64.11158,-38.90833 c 35.26137,-21.39958 64.67265,-39.23889 65.3584,-39.64291 0.91189,-0.53725 18.43995,9.45447 65.25029,37.19537 35.20191,20.86147 64.32929,38.25373 64.72751,38.64946 0.9381,0.93222 -2.33648,153.67028 -3.31474,154.61121 -1.00194,0.96371 -127.57842,70.67853 -128.22536,70.62299 -0.28365,-0.0244 -29.63241,-16.76294 -65.21946,-37.19682 z"
     id="path4579"
     inkscape:connector-curvature="0"
     inkscape:export-xdpi="242.93201"
     inkscape:export-ydpi="242.93201"
     inkscape:export-filename="C:\Users\josullivan\Desktop\Angular\Paper Engine\paper\gem2.png" />
  <path
     style="opacity:0.25600011;fill:#660080;fill-opacity:1;fill-rule:nonzero;stroke:none;stroke-width:1.73101938;stroke-linecap:round;stroke-linejoin:round;stroke-miterlimit:4;stroke-dasharray:none;stroke-opacity:1"
     d="m 414.69894,508.65576 c -1.01606,-0.71168 -1.85311,-0.99221 -1.86011,-0.62341 -0.007,0.36879 -0.28753,0.25553 -0.62341,-0.25169 -0.54906,-0.82919 -7.29319,-4.84654 -13.9101,-8.28599 -1.3715,-0.71291 -3.98983,-2.20292 -5.8185,-3.31115 -1.82867,-1.10822 -4.44699,-2.60441 -5.8185,-3.32485 -1.3715,-0.72045 -3.98982,-2.21664 -5.81849,-3.32486 -1.82867,-1.10822 -4.447,-2.60441 -5.8185,-3.32486 -1.3715,-0.72044 -3.98983,-2.21663 -5.8185,-3.32485 -1.82867,-1.10823 -4.44699,-2.60441 -5.81849,-3.32486 -1.37151,-0.72044 -3.98983,-2.22257 -5.8185,-3.33806 -1.82867,-1.11549 -4.35348,-2.48095 -5.6107,-3.03436 -1.25721,-0.55341 -2.28583,-1.25286 -2.28583,-1.55434 0,-0.30147 -1.21565,-1.03984 -2.70145,-1.64081 -1.48579,-0.60097 -2.88847,-1.34188 -3.11705,-1.64648 -0.39814,-0.53054 -8.48496,-5.199 -13.71503,-7.91757 -1.3715,-0.71291 -3.98983,-2.20293 -5.8185,-3.31115 -1.82867,-1.10823 -4.44699,-2.60441 -5.81849,-3.32486 -1.37151,-0.72044 -3.98983,-2.21189 -5.8185,-3.31433 -1.82867,-1.10244 -4.25997,-2.47504 -5.40289,-3.05024 -1.14292,-0.57519 -2.57175,-1.51716 -3.17518,-2.09327 -0.60343,-0.5761 -2.0061,-1.2756 -3.11705,-1.55443 -1.11095,-0.27883 -2.01991,-0.81624 -2.01991,-1.19426 0,-0.37802 -1.30916,-1.1607 -2.90925,-1.7393 -1.60009,-0.5786 -2.90925,-1.30552 -2.90925,-1.61539 0,-0.30986 -1.17115,-1.04849 -2.60257,-1.6414 l -2.60256,-1.07802 0.56547,-14.60809 c 0.6871,-17.75014 1.30587,-67.09254 1.31101,-104.54416 0.004,-27.46626 0.0125,-27.60439 1.87403,-29.60037 1.02863,-1.10294 2.71183,-2.26956 3.74046,-2.59248 1.02863,-0.32293 1.87023,-0.93599 1.87023,-1.36235 0,-0.42636 0.36078,-0.7752 0.80173,-0.7752 0.87189,0 13.48186,-7.44355 14.16012,-8.35859 0.22859,-0.30838 1.25721,-0.82334 2.28584,-1.14435 1.02863,-0.32101 1.87023,-0.89194 1.87023,-1.26874 0,-0.3768 0.93512,-0.91979 2.07804,-1.20664 1.14292,-0.28686 2.07803,-0.88848 2.07803,-1.33693 0,-0.44846 0.36078,-0.81538 0.80173,-0.81538 0.87189,0 13.48186,-7.44356 14.16012,-8.3586 0.22858,-0.30838 1.25721,-0.82333 2.28584,-1.14434 1.02863,-0.32101 1.87023,-0.89195 1.87023,-1.26875 0,-0.3768 0.93512,-0.91978 2.07803,-1.20664 1.14292,-0.28685 2.07804,-0.88847 2.07804,-1.33693 0,-0.44846 0.36843,-0.81538 0.81873,-0.81538 0.87645,0 9.29317,-4.94919 9.98705,-5.87257 0.22858,-0.30419 1.25721,-0.81572 2.28584,-1.13673 1.02862,-0.32101 1.87023,-0.93249 1.87023,-1.35885 0,-0.42636 0.43313,-0.7752 0.96252,-0.7752 0.98769,0 17.40778,-9.80128 18.1554,-10.83711 0.22858,-0.3167 1.25721,-0.83846 2.28584,-1.15947 1.02862,-0.32101 1.87023,-0.9325 1.87023,-1.35886 0,-0.42636 0.43313,-0.7752 0.96252,-0.7752 0.98769,0 17.40778,-9.80128 18.1554,-10.8371 0.22858,-0.31671 1.25721,-0.83847 2.28583,-1.15948 1.02863,-0.32101 1.87024,-0.93249 1.87024,-1.35885 0,-0.42636 0.42018,-0.7752 0.93375,-0.7752 0.51356,0 3.70622,-1.68321 7.0948,-3.74046 3.38858,-2.05726 6.40449,-3.74047 6.70204,-3.74047 0.66025,0 12.97804,6.91045 29.87293,16.75914 6.93099,4.04033 13.00924,7.34607 13.50723,7.34607 0.49799,0 0.90543,0.34884 0.90543,0.7752 0,0.42636 0.8416,1.03784 1.87023,1.35885 1.02863,0.32101 2.05726,0.82343 2.28584,1.1165 0.75149,0.96349 16.47548,10.04887 17.3915,10.04887 0.49236,0 0.89521,0.36692 0.89521,0.81537 0,0.44846 0.93511,1.05008 2.07803,1.33694 1.14292,0.28685 2.07803,0.81845 2.07803,1.18134 0,0.36288 1.02863,1.07046 2.28584,1.5724 1.25721,0.50193 4.90416,2.58546 8.10434,4.63006 3.20017,2.0446 6.28605,3.72777 6.85751,3.74038 0.57146,0.0126 1.03902,0.37177 1.03902,0.79813 0,0.42636 0.8416,1.03784 1.87023,1.35885 1.02863,0.32101 2.05726,0.84857 2.28584,1.17236 0.51812,0.73392 16.26272,9.99301 16.99258,9.99301 0.29319,0 0.98485,0.4039 1.53701,0.89755 0.55216,0.49366 4.65089,3.13231 9.10827,5.86367 l 8.10434,4.96612 0.13094,15.9557 c 0.072,8.77563 0.0908,16.51676 0.0417,17.20251 -0.0491,0.68575 -0.30067,10.97202 -0.55909,22.85838 -1.01566,46.7178 -1.23985,56.27053 -1.68744,71.9 -0.25529,8.91477 -0.6689,18.52715 -0.91913,21.36085 -0.45067,5.1037 -0.49153,5.17343 -4.34166,7.40898 -2.13768,1.24123 -4.11554,2.60165 -4.39523,3.02315 -0.27971,0.42149 -0.65375,0.65314 -0.83122,0.51477 -0.4759,-0.37105 -15.23689,7.74906 -15.56159,8.56054 -0.1524,0.38082 -0.65589,0.69241 -1.11888,0.69241 -0.463,0 -4.01315,1.77672 -7.88925,3.94826 -3.8761,2.17155 -8.79628,4.82935 -10.93373,5.90625 -2.13745,1.07689 -4.0733,2.19903 -4.30188,2.49364 -0.22859,0.29461 -2.25534,1.47078 -4.50388,2.6137 -9.81103,4.98686 -11.72862,6.02739 -12.1204,6.57684 -0.22859,0.32057 -1.66312,1.08775 -3.18785,1.70485 -1.52473,0.6171 -3.22467,1.53098 -3.77764,2.03084 -0.55297,0.49987 -4.54212,2.74836 -8.86476,4.99665 -4.32264,2.2483 -8.04678,4.30555 -8.27586,4.57168 -0.22908,0.26613 -3.74021,2.16708 -7.80251,4.22434 -4.06229,2.05725 -7.81731,4.11451 -8.34449,4.57167 -1.69024,1.46578 -21.00135,11.22139 -22.2126,11.22139 -0.64232,0 -1.99918,-0.58228 -3.01523,-1.29395 z"
     id="path4581"
     inkscape:connector-curvature="0"
     inkscape:export-xdpi="242.93201"
     inkscape:export-ydpi="242.93201"
     inkscape:export-filename="C:\Users\josullivan\Desktop\Angular\Paper Engine\paper\gem2.png" />
  <path
     style="opacity:0.25600011;fill:#660080;fill-opacity:1;fill-rule:nonzero;stroke:none;stroke-width:1.73101938;stroke-linecap:round;stroke-linejoin:round;stroke-miterlimit:4;stroke-dasharray:none;stroke-opacity:1"
     d="m 396.18102,497.97657 c -11.63232,-6.58524 -28.63062,-16.2852 -37.77397,-21.5555 -9.14335,-5.27029 -28.70536,-16.43392 -43.47114,-24.80807 l -26.84686,-15.22572 0.53007,-7.89653 c 0.29155,-4.34309 0.77985,-37.31633 1.08513,-73.27386 0.52342,-61.65249 0.64138,-65.47273 2.07034,-67.05172 0.83341,-0.92091 5.50634,-4.07599 10.38428,-7.01129 4.87795,-2.9353 18.59419,-11.24908 30.48055,-18.47506 11.88636,-7.22598 26.10012,-15.83947 31.58613,-19.14109 5.48601,-3.30162 15.95931,-9.65647 23.27399,-14.12187 7.31468,-4.46541 17.5964,-10.64862 22.84827,-13.74046 l 9.54886,-5.62154 3.97463,2.0141 c 6.92232,3.5078 42.65861,24.18498 65.86754,38.11127 3.20018,1.92023 13.29943,7.92418 22.44278,13.34211 9.14335,5.41794 21.20634,12.65252 26.80665,16.07685 l 10.18237,6.22607 0.002,15.43411 c 0.002,18.87153 -1.40736,83.67498 -2.4948,114.72488 -0.70341,20.08485 -0.97541,22.98992 -2.26999,24.24472 -1.47047,1.42528 -10.07953,6.35638 -34.30378,19.64857 -7.08609,3.88824 -16.0632,8.82953 -19.94913,10.98063 -45.93735,25.42929 -71.08659,39.00802 -72.36187,39.07006 -0.25403,0.0124 -9.97923,-5.36543 -21.61156,-11.95066 z"
     id="path4583"
     inkscape:connector-curvature="0"
     inkscape:export-xdpi="242.93201"
     inkscape:export-ydpi="242.93201"
     inkscape:export-filename="C:\Users\josullivan\Desktop\Angular\Paper Engine\paper\gem2.png" />
  <path
     style="opacity:0.25600011;fill:#00ff00;fill-opacity:1;fill-rule:nonzero;stroke:none;stroke-width:1.73101938;stroke-linecap:round;stroke-linejoin:round;stroke-miterlimit:4;stroke-dasharray:none;stroke-opacity:1"
     d="m 250.99598,262.31862 c -39.96298,-24.5712 -83.21613,-51.46671 -95.00442,-59.0753 l -7.37389,-4.75935 3.39805,-2.49896 c 4.57846,-3.36704 35.36616,-21.33304 100.70521,-58.766 119.15536,-68.264512 161.88453,-92.416964 163.49894,-92.416964 0.47049,0 1.09331,1.735415 1.38404,3.856476 0.29071,2.121062 0.51534,38.871105 0.49915,81.666758 l -0.0294,77.81029 -46.17823,27.84567 c -55.87532,33.69304 -81.87529,49.04162 -83.07485,49.04162 -0.49394,0 -17.51499,-10.21691 -37.82456,-22.70424 z"
     id="path838"
     inkscape:connector-curvature="0"
     inkscape:export-filename="C:\Users\josullivan\Desktop\Angular\Paper Engine\paper\gem2.png"
     inkscape:export-xdpi="242.93201"
     inkscape:export-ydpi="242.93201" />
  <path
     style="opacity:0.25600011;fill:#00ff00;fill-opacity:1;fill-rule:nonzero;stroke:none;stroke-width:1.73101938;stroke-linecap:round;stroke-linejoin:round;stroke-miterlimit:4;stroke-dasharray:none;stroke-opacity:1"
     d="M 265.08154,270.59513 C 208.46649,236.10373 149.65041,199.312 149.65041,198.38851 c 0,-1.54637 33.69829,-21.26448 146.51783,-85.73299 113.052,-64.60136 119.61599,-68.214744 120.63694,-66.409026 0.52718,0.932405 0.95676,30.419038 1.1819,81.127596 l 0.3537,79.66281 -2.49079,2.21176 c -1.36993,1.21647 -2.86517,2.28935 -3.32276,2.38416 -0.45758,0.0948 -20.23667,11.83493 -43.95353,26.08915 -45.4791,27.33367 -72.984,43.66266 -77.30893,45.89643 l -2.60124,1.34351 z"
     id="path840"
     inkscape:connector-curvature="0"
     inkscape:export-filename="C:\Users\josullivan\Desktop\Angular\Paper Engine\paper\gem2.png"
     inkscape:export-xdpi="242.93201"
     inkscape:export-ydpi="242.93201" />
  <path
     style="opacity:0.25600011;fill:#00ff00;fill-opacity:1;fill-rule:nonzero;stroke:none;stroke-width:1.73101938;stroke-linecap:round;stroke-linejoin:round;stroke-miterlimit:4;stroke-dasharray:none;stroke-opacity:1"
     d="m 144.83893,373.02665 c 0.10899,-80.17524 0.39456,-151.69686 0.63459,-158.93694 l 0.43643,-13.16379 15.79306,9.50638 c 8.68619,5.22851 37.48775,22.89396 64.00347,39.25656 26.51572,16.36259 51.29628,31.65154 55.06792,33.97542 l 6.85751,4.22525 -0.0357,5.00857 c -0.0197,2.75471 -0.36111,36.01143 -0.75879,73.90381 -0.68482,65.25272 -0.80378,68.97177 -2.2501,70.3429 -0.83987,0.79621 -31.82479,18.95032 -68.85537,40.34246 -37.03058,21.39214 -68.17496,39.43879 -69.20974,40.10367 l -1.88141,1.20887 z"
     id="path842"
     inkscape:connector-curvature="0"
     inkscape:export-filename="C:\Users\josullivan\Desktop\Angular\Paper Engine\paper\gem2.png"
     inkscape:export-xdpi="242.93201"
     inkscape:export-ydpi="242.93201" />
  <path
     style="opacity:0.25600011;fill:#00ff00;fill-opacity:1;fill-rule:nonzero;stroke:none;stroke-width:1.73101938;stroke-linecap:round;stroke-linejoin:round;stroke-miterlimit:4;stroke-dasharray:none;stroke-opacity:1"
     d="m 542.72971,277.64432 c -9.35878,-5.21036 -38.80763,-22.4295 -88.14866,-51.54173 l -31.29538,-18.46491 -0.56801,-10.97244 c -0.69971,-13.51628 -0.22211,-150.685918 0.52727,-151.434659 0.75626,-0.75563 4.89204,1.437694 36.04634,19.116437 53.75851,30.505666 220.34916,126.237922 228.36232,131.229692 0.80004,0.49838 1.45462,1.16467 1.45462,1.48065 0,0.31597 -6.45229,4.66687 -14.33843,9.66867 -24.98876,15.84913 -115.94329,71.77792 -121.64989,74.80364 -1.48765,0.78877 -3.03157,0.21143 -10.39018,-3.88535 z"
     id="path844"
     inkscape:connector-curvature="0"
     inkscape:export-filename="C:\Users\josullivan\Desktop\Angular\Paper Engine\paper\gem2.png"
     inkscape:export-xdpi="242.93201"
     inkscape:export-ydpi="242.93201" />
  <path
     style="opacity:0.25600011;fill:#00ff00;fill-opacity:1;fill-rule:nonzero;stroke:none;stroke-width:1.73101938;stroke-linecap:round;stroke-linejoin:round;stroke-miterlimit:4;stroke-dasharray:none;stroke-opacity:1"
     d="m 395.64345,497.477 c -11.63232,-6.58548 -40.41307,-23.01487 -63.9572,-36.50972 l -42.80752,-24.53612 0.29672,-19.38941 c 0.1632,-10.66418 0.57505,-43.5154 0.91523,-73.00271 0.34019,-29.48731 0.86946,-54.17436 1.17616,-54.86011 0.69542,-1.5549 1.95614,-2.37379 27.9512,-18.1555 38.75462,-23.52809 80.08407,-48.5449 90.45693,-54.75378 l 10.2448,-6.13221 8.04191,4.33441 c 10.25783,5.52875 50.87014,29.25404 90.21884,52.70492 l 30.64167,18.26169 -0.49534,45.71677 c -0.50949,47.0222 -1.75145,95.20272 -2.67469,103.76147 -0.51174,4.74401 -0.6137,4.90457 -4.79727,7.55425 -2.35093,1.48897 -13.99962,8.05583 -25.88598,14.59304 -11.88636,6.53721 -27.40928,15.08215 -34.49538,18.98876 -38.83375,21.40934 -61.22577,33.39785 -62.38017,33.39785 -0.71512,0 -10.81758,-5.38812 -22.44991,-11.9736 z"
     id="path846"
     inkscape:connector-curvature="0"
     inkscape:export-filename="C:\Users\josullivan\Desktop\Angular\Paper Engine\paper\gem2.png"
     inkscape:export-xdpi="242.93201"
     inkscape:export-ydpi="242.93201" />
  <path
     style="opacity:0.25600011;fill:#00ff00;fill-opacity:1;fill-rule:nonzero;stroke:none;stroke-width:1.73101938;stroke-linecap:round;stroke-linejoin:round;stroke-miterlimit:4;stroke-dasharray:none;stroke-opacity:1"
     d="m 399.84579,666.83036 c -10.74344,-6.20198 -62.73587,-36.16444 -115.53873,-66.58324 -103.729,-59.75645 -135.49992,-78.17283 -136.6224,-79.19476 -0.39541,-0.35999 0.72673,-1.56698 2.49364,-2.6822 10.79834,-6.81559 128.58765,-75.19275 134.36692,-78.00053 l 3.62238,-1.75989 51.47522,29.50317 c 28.31137,16.22674 57.14947,32.82052 64.08466,36.87505 l 12.60943,7.37189 0.49617,6.64971 c 1.64891,22.09908 4.49587,159.20039 3.30454,159.1373 -0.41707,-0.0221 -9.54839,-5.11451 -20.29183,-11.3165 z"
     id="path848"
     inkscape:connector-curvature="0"
     inkscape:export-filename="C:\Users\josullivan\Desktop\Angular\Paper Engine\paper\gem2.png"
     inkscape:export-xdpi="242.93201"
     inkscape:export-ydpi="242.93201" />
  <path
     style="opacity:0.25600011;fill:#00ff00;fill-opacity:1;fill-rule:nonzero;stroke:none;stroke-width:1.73101938;stroke-linecap:round;stroke-linejoin:round;stroke-miterlimit:4;stroke-dasharray:none;stroke-opacity:1"
     d="m 686.61457,511.74656 c -3.42875,-1.81632 -22.31809,-11.7324 -41.9763,-22.03572 -19.65821,-10.30332 -49.14329,-25.84255 -65.5224,-34.53161 l -29.78021,-15.79829 0.48178,-14.6302 c 0.26497,-8.04661 0.8973,-40.43939 1.40516,-71.98395 0.50786,-31.54457 1.16161,-59.57359 1.45277,-62.28672 l 0.52938,-4.93297 44.46994,-27.26654 c 69.29213,-42.48615 93.04707,-56.70505 93.67904,-56.07308 2.10048,2.10049 4.4079,312.25602 2.32616,312.67442 -0.45717,0.0919 -3.63656,-1.31902 -7.06532,-3.13534 z"
     id="path850"
     inkscape:connector-curvature="0"
     inkscape:export-filename="C:\Users\josullivan\Desktop\Angular\Paper Engine\paper\gem2.png"
     inkscape:export-xdpi="242.93201"
     inkscape:export-ydpi="242.93201" />
  <path
     style="opacity:0.25600011;fill:#00ff00;fill-opacity:1;fill-rule:nonzero;stroke:none;stroke-width:1.73101938;stroke-linecap:round;stroke-linejoin:round;stroke-miterlimit:4;stroke-dasharray:none;stroke-opacity:1"
     d="m 422.76639,663.82999 c -0.82029,-23.35446 -3.87433,-151.26869 -3.61598,-151.45042 2.81796,-1.9822 127.96514,-70.25169 128.75746,-70.23894 1.46068,0.0235 145.66229,76.12415 145.9646,77.03105 0.12451,0.37355 -1.36407,1.65079 -3.30795,2.83831 -1.94389,1.18753 -6.90076,4.22073 -11.01526,6.74044 -7.24821,4.43879 -250.88557,147.3629 -254.46987,149.27874 l -1.78084,0.95188 z"
     id="path852"
     inkscape:connector-curvature="0"
     inkscape:export-filename="C:\Users\josullivan\Desktop\Angular\Paper Engine\paper\gem2.png"
     inkscape:export-xdpi="242.93201"
     inkscape:export-ydpi="242.93201" />
</svg>
